<?xml version="1.0" encoding="UTF-8"?>
<svg id="Layer_1" xmlns="http://www.w3.org/2000/svg" version="1.1" viewBox="0 0 1920 1080">
  <!-- Generator: Adobe Illustrator 29.0.1, SVG Export Plug-In . SVG Version: 2.1.0 Build 192)  -->
  <defs>
    <style>
      .st0 {
        font-family: FONTSPRINGDEMO-TorusProBold, 'FONTSPRING DEMO - Torus Pro';
        font-size: 98.44px;
        font-weight: 700;
      }

      .st0, .st1 {
        fill: #212121;
      }

      .st2 {
        fill: #794aff;
      }
    </style>
  </defs>
  <path class="st2" d="M1234.31,451.97v39h97.5c.71.05,1.38.18,2.2.43,10.58,3.2,18.74,11.81,21.48,22.52,2.06,8.04,2.33,17.23.62,25.63-3.1,15.21-16.65,26.03-32.17,26.03h-89.63s0,40.69,0,40.69h130.97c3.8,0,7.59.78,10.98,2.51,17.76,9.06,18.57,34.61,14.13,52.68-4.03,14.28-16.08,18.4-29.69,19.48-55.06,4.35-84.14.39-171.38,0-20.31-.09-29.69-11.56-29.69-31.36,0-80.58,1.27-163.91,1.69-249.41.02-3.25,1.24-6.75,3.42-9.95,4.89-7.16,13.19-11.22,21.85-11.18,56.34.23,112.68-.31,169.03.1,4.06.03,7.78.09,11.43.25,17.45.75,23.58,9.66,24.96,22.55,1.83,17.16,2.22,40.16-15.85,47.08-2.07.79-3.77.97-6.51,1.18l-135.33,1.77Z"/>
  <path class="st2" d="M986.37,374.44c44.53-4.72,112.75,12.55,136.72,53.95,19.51,33.7-18.55,66.45-52.1,47.02-26.48-15.34-29.64-30.87-68.11-28.49-112.66,6.99-90.52,187.09,22.93,161.95,27.9-6.18,31.32-21.21,50.7-30.69,34.11-16.69,68.09,21.84,43.2,55.07-40.48,54.03-130.44,63.6-187.25,31.55-128.15-72.32-89.29-275.17,53.91-290.36Z"/>
  <path class="st2" d="M706.86,511.14h0c-.41.18-.78.44-1.07.79-12.04,14.25-39.1,73.88-50.88,80.42-24.08,13.35-70.94,9.25-90.43-12.58-.88-.98-1.01-2.43-.32-3.56l115.58-188.98c.13-.22.28-.43.43-.63.55-.74.89-1.18,1.51-1.65,20.52-15.86,43.42-11.73,58.22,9.52,13.61,19.54,25.43,43.74,37.8,64.43.37.63.52,1.36.36,2.08-1.25,5.56-10.58,19.58-13.39,24.1-4.54,7.31-31.06,46.92-35.65,49.22-2.57,1.84-3.49-.23-5.08-1.78-3.99-3.88-8.3-13.03-11.73-19.5-1.02-1.93-3.35-2.73-5.35-1.87Z"/>
  <path class="st1" d="M528.95,567.28l26.32,28.77c102.86,70.82,199.27-51.79,243.56-133.59,12.23-7.11,19.76,33.52,17.56,42.13-2.58,10.1-19.33,37.14-25.62,47.28-29.3,47.17-75.34,99.28-130.39,115.47-69.25,20.36-128.84-31.02-131.43-100.06Z"/>
  <path class="st2" d="M809.95,551.06c.54-.8,1.61-1.08,2.45-.6,3.17,1.83,7.52,9.84,8.9,11.86,11.32,16.64,30.04,44.14,38.6,61.44,16.41,33.11-18.1,67.13-49.58,54.67-19.6-7.76-34.43-31.09-47.03-58.05l46.67-69.32Z"/>
  <path class="st2" d="M829.64,480.78c-1.07,2.94-3.5,2.61-4.44-.36-5.59-11.07-10.22-22.68-19.61-31.23l18.39-42.98-25.73-1.81c-2.13-.12-4.06-1.6-4.79-3.58-.2-.55-.21-1.16-.07-1.73,3.12-12.83,37.59-39.52,64.29-65.02,7.51-5.81,10.96,5.26,12.1,10.21,6.41,17.97,10.92,36.96,16.11,55.34,1.02,13.22-27.13,2.33-30.58,8.24,0,0-25.68,72.92-25.68,72.92Z"/>
  <text class="st0" transform="translate(528.61 788.6)"><tspan x="0" y="0">DIGITAL SOLUTIONS</tspan></text>
</svg>